<svg version="1.1" id="Layer_1" xmlns="http://www.w3.org/2000/svg" xmlns:xlink="http://www.w3.org/1999/xlink" x="0px" y="0px"
	 viewBox="0 0 52 60" style="enable-background:new 0 0 52 60;" xml:space="preserve">
<style type="text/css">
	.st0{fill:#FFFFFF;}
	.st1{fill:#39B54A;stroke:#FFFFFF;stroke-width:0.8241;stroke-miterlimit:10;}
	.st2{fill:#24294F;stroke:#FFFFFF;stroke-width:0.646;stroke-miterlimit:10;}
	.st3{fill:#BCBEC0;stroke:#FFFFFF;stroke-width:0.646;stroke-miterlimit:10;}
</style>
<rect x="369.2" y="222.6" class="st0" width="56.1" height="161.5"/>
<g>
	<g>
		<path class="st1" d="M38.1,13.2v33.2c0,3.6-3,6.6-6.6,6.6H7.3c-3.6,0-6.6-3-6.6-6.6V13.2c0-3.6,3-6.6,6.6-6.6h24.2
			C35.2,6.6,38.1,9.5,38.1,13.2z"/>
		<path class="st1" d="M38.1,52.4v4.2c0,1.6-1.3,2.8-2.8,2.8H16.1c-1.6,0-2.8-1.3-2.8-2.8v-4.2c0-1.6,1.3-2.8,2.8-2.8h19.2
			C36.9,49.6,38.1,50.8,38.1,52.4z"/>
		<path class="st1" d="M38.1,3.6v4.2c0,1.6-1.3,2.8-2.8,2.8H16.1c-1.6,0-2.8-1.3-2.8-2.8V3.6c0-1.6,1.3-2.8,2.8-2.8h19.2
			C36.9,0.7,38.1,2,38.1,3.6z"/>
		<path class="st1" d="M38.8,48.2V11.4c0-2.7,2.2-4.8,4.8-4.8l0,0c4.3,0,7.8,3.5,7.8,7.8v30.8c0,4.3-3.5,7.8-7.8,7.8l0,0
			C40.9,53,38.8,50.8,38.8,48.2z"/>
	</g>
</g>
<g>
	<path class="st2" d="M413.5,313.1h-26c-2.9,0-5.2-2.3-5.2-5.2v-19c0-2.9,2.3-5.2,5.2-5.2h26c2.9,0,5.2,2.3,5.2,5.2v19
		C418.7,310.8,416.4,313.1,413.5,313.1z"/>
	<path class="st2" d="M382.8,313.1h-3.3c-1.2,0-2.2-1-2.2-2.2v-15c0-1.2,1-2.2,2.2-2.2h3.3c1.2,0,2.2,1,2.2,2.2v15
		C385,312.1,384,313.1,382.8,313.1z"/>
	<path class="st2" d="M421.1,313.1h-3.3c-1.2,0-2.2-1-2.2-2.2v-15c0-1.2,1-2.2,2.2-2.2h3.3c1.2,0,2.2,1,2.2,2.2v15
		C423.3,312.1,422.3,313.1,421.1,313.1z"/>
	<path class="st2" d="M386.1,313.6h28.8c2.1,0,3.8,1.7,3.8,3.8l0,0c0,3.4-2.7,6.1-6.1,6.1h-24.1c-3.4,0-6.1-2.7-6.1-6.1l0,0
		C382.3,315.3,384,313.6,386.1,313.6z"/>
</g>
<g>
	<path class="st3" d="M413.8,366.2h-26c-2.9,0-5.2-2.3-5.2-5.2v-19c0-2.9,2.3-5.2,5.2-5.2h26c2.9,0,5.2,2.3,5.2,5.2v19
		C419,363.9,416.6,366.2,413.8,366.2z"/>
	<path class="st3" d="M383,366.2h-3.3c-1.2,0-2.2-1-2.2-2.2v-15c0-1.2,1-2.2,2.2-2.2h3.3c1.2,0,2.2,1,2.2,2.2v15
		C385.2,365.2,384.3,366.2,383,366.2z"/>
	<path class="st3" d="M421.3,366.2H418c-1.2,0-2.2-1-2.2-2.2v-15c0-1.2,1-2.2,2.2-2.2h3.3c1.2,0,2.2,1,2.2,2.2v15
		C423.5,365.2,422.5,366.2,421.3,366.2z"/>
	<path class="st3" d="M386.3,366.7h28.8c2.1,0,3.8,1.7,3.8,3.8l0,0c0,3.4-2.7,6.1-6.1,6.1h-24.1c-3.4,0-6.1-2.7-6.1-6.1l0,0
		C382.6,368.4,384.3,366.7,386.3,366.7z"/>
</g>
</svg>
