<svg version="1.1" id="Layer_1" xmlns="http://www.w3.org/2000/svg" xmlns:xlink="http://www.w3.org/1999/xlink" x="0px" y="0px"
	 viewBox="0 0 52 60" style="enable-background:new 0 0 52 60;" xml:space="preserve">
<style type="text/css">
	.st0{fill:#BCBEC0;stroke:#FFFFFF;stroke-width:0.646;stroke-miterlimit:10;}
</style>
<g>
	<g>
		<path class="st0" d="M38.1,13.2v33.2c0,3.6-3,6.6-6.6,6.6H7.3c-3.6,0-6.6-3-6.6-6.6V13.2c0-3.6,3-6.6,6.6-6.6h24.2
			C35.2,6.6,38.1,9.5,38.1,13.2z"/>
		<path class="st0" d="M38.1,52.4v4.2c0,1.6-1.3,2.8-2.8,2.8H16.1c-1.6,0-2.8-1.3-2.8-2.8v-4.2c0-1.6,1.3-2.8,2.8-2.8h19.2
			C36.9,49.6,38.1,50.8,38.1,52.4z"/>
		<path class="st0" d="M38.1,3.6v4.2c0,1.6-1.3,2.8-2.8,2.8H16.1c-1.6,0-2.8-1.3-2.8-2.8V3.6c0-1.6,1.3-2.8,2.8-2.8h19.2
			C36.9,0.7,38.1,2,38.1,3.6z"/>
		<path class="st0" d="M38.8,48.2V11.4c0-2.7,2.2-4.8,4.8-4.8l0,0c4.3,0,7.8,3.5,7.8,7.8v30.8c0,4.3-3.5,7.8-7.8,7.8l0,0
			C40.9,53,38.8,50.8,38.8,48.2z"/>
	</g>
</g>
</svg>
