<?xml version="1.0" encoding="UTF-8"?>
<!DOCTYPE svg PUBLIC "-//W3C//DTD SVG 1.1//EN" "http://www.w3.org/Graphics/SVG/1.1/DTD/svg11.dtd">
<!-- Creator: CorelDRAW 2020 (64-Bit) -->
<svg xmlns="http://www.w3.org/2000/svg" xml:space="preserve" width="12.6302mm" height="12.9135mm" version="1.1" style="shape-rendering:geometricPrecision; text-rendering:geometricPrecision; image-rendering:optimizeQuality; fill-rule:evenodd; clip-rule:evenodd"
viewBox="0 0 200.8 205.3"
 xmlns:xlink="http://www.w3.org/1999/xlink"
 xmlns:xodm="http://www.corel.com/coreldraw/odm/2003">
 <defs>
  <style type="text/css">
   <![CDATA[
    .fil0 {fill:#336699}
   ]]>
  </style>
 </defs>
 <g id="Capa_x0020_1">
  <metadata id="CorelCorpID_0Corel-Layer"/>
  <g id="_1783835547056">
   <path class="fil0" d="M37.91 205.31l114.67 0c-9.07,-5.69 -15.13,-15.78 -15.13,-27.24l0 -2.63c-2.39,1 -5.01,1.55 -7.76,1.55l-87.42 0c-6.04,4.08 -10.03,10.99 -10.03,18.79l0 3.87c0,3.12 2.55,5.66 5.66,5.66z"/>
   <path class="fil0" d="M192.06 1.5l-22.47 0c-14.16,0 -25.73,11.58 -25.73,25.73l0 6.87c3.79,3.7 6.15,8.84 6.15,14.52l0 108.05c0,5.68 -2.36,10.83 -6.15,14.52l0 6.87c0,14.16 11.58,25.73 25.73,25.73l22.47 0c4.81,0 8.74,-3.93 8.74,-8.74l0 -184.82c0,-4.81 -3.93,-8.74 -8.74,-8.74z"/>
   <rect class="fil0" x="-0" y="34.47" width="143.85" height="136.36" rx="14.16" ry="14.16"/>
   <path class="fil0" d="M37.91 0l114.67 0c-9.07,5.69 -15.13,15.79 -15.13,27.24l0 2.63c-2.39,-1 -5.01,-1.55 -7.76,-1.55l-87.42 0c-6.04,-4.08 -10.03,-10.99 -10.03,-18.79l0 -3.87c0,-3.11 2.55,-5.66 5.66,-5.66z"/>
  </g>
 </g>
</svg>
