<?xml version="1.0" encoding="UTF-8"?>
<!DOCTYPE svg PUBLIC "-//W3C//DTD SVG 1.1//EN" "http://www.w3.org/Graphics/SVG/1.1/DTD/svg11.dtd">
<!-- Creator: CorelDRAW 2020 (64-Bit) -->
<svg xmlns="http://www.w3.org/2000/svg" xml:space="preserve" width="13.5505mm" height="12.9135mm" version="1.1" style="shape-rendering:geometricPrecision; text-rendering:geometricPrecision; image-rendering:optimizeQuality; fill-rule:evenodd; clip-rule:evenodd"
viewBox="0 0 391.12 372.73"
 xmlns:xlink="http://www.w3.org/1999/xlink"
 xmlns:xodm="http://www.corel.com/coreldraw/odm/2003">
 <defs>
  <style type="text/css">
   <![CDATA[
    .fil1 {fill:#B3B3B3}
    .fil0 {fill:red}
   ]]>
  </style>
 </defs>
 <g id="Capa_x0020_1">
  <metadata id="CorelCorpID_0Corel-Layer"/>
  <g id="_1783834380528">
   <g>
    <path class="fil0" d="M95.39 372.73l208.18 0c-16.46,-10.34 -27.46,-28.66 -27.46,-49.44l0 -4.79c-4.34,1.81 -9.1,2.81 -14.08,2.81l-158.71 0c-10.97,7.4 -18.21,19.95 -18.21,34.1l0 7.03c0,5.65 4.63,10.28 10.28,10.28z"/>
    <path class="fil0" d="M375.24 2.73l-40.79 0c-25.7,0 -46.72,21.02 -46.72,46.72l0 12.47c6.88,6.71 11.17,16.05 11.17,26.36l0 43.26c26.11,-0.22 50.68,17.67 54.6,48 3.8,29.41 -17.26,56.99 -46.58,61.11 -2.69,0.38 -5.37,0.55 -8.02,0.53l0 43.26c0,10.32 -4.29,19.66 -11.17,26.37l0 12.48c0,25.7 21.02,46.72 46.72,46.72l40.79 0c8.73,0 15.88,-7.14 15.88,-15.87l0 -335.53c0,-8.73 -7.15,-15.87 -15.88,-15.87z"/>
    <path class="fil0" d="M52.27 62.59l120.53 0c-12.34,7.37 -19.87,22.26 -14.71,39.64 2.38,8.03 9.66,15.11 17.17,20.93 -18.2,0.03 -36.41,0.23 -54.61,0.23 -31.36,-0 -62.74,-0.72 -94.1,-0.11l0 -34.99c0,-14.14 11.56,-25.7 25.71,-25.7zm156.46 0l53.3 0c14.14,0 25.71,11.56 25.71,25.7l0 31.08c-4.05,-3.81 -8.68,-6.38 -13.77,-9.95l-62.09 -44.84c-0.09,-0.07 -0.16,-0.12 -0.25,-0.18 -0.96,-0.66 -1.92,-1.26 -2.89,-1.81zm79 190.71l0 31.14c0,14.14 -11.57,25.71 -25.71,25.71l-53.31 0c5.01,-2.8 9.85,-6.51 15.08,-10.42l49.61 -36.07c5.29,-3.85 10.09,-6.38 14.33,-10.36zm-115.37 56.85l-120.09 0c-14.14,0 -25.71,-11.57 -25.71,-25.71l0 -35.11c30.94,0.76 61.91,-0.13 92.85,-0.14 18.66,-0 37.33,0.29 56,0.36 -7.1,5.11 -13.79,10.77 -16.8,19.35 -5.56,15.83 0.14,33.01 13.74,41.25z"/>
    <path class="fil0" d="M95.39 -0l208.18 0c-16.47,10.34 -27.47,28.66 -27.47,49.45l0 4.77c-4.34,-1.81 -9.1,-2.8 -14.08,-2.8l-158.71 0c-10.97,-7.41 -18.21,-19.96 -18.21,-34.11l0 -7.04c0,-5.65 4.63,-10.28 10.28,-10.28z"/>
   </g>
   <g>
    <path class="fil1" d="M217.91 137.38c-32.03,-0.83 -65.11,-0.2 -97.25,-0.2 -32.15,0 -65.22,-0.77 -97.25,-0.04 -14.15,0.32 -25.7,9.55 -22.97,24.86 2.74,15.34 15.62,16.43 31.74,16.4l86.01 -0.05c5.03,-0.08 8.14,-0.78 11.36,2.01l0.53 11.9c-0.86,0.23 -0.96,0.48 -1.49,0.55l-95.17 1.32c-15.99,-0.02 -29.5,0.98 -32.8,15.54 -3.39,14.91 7.58,25.32 21.52,25.75 31.77,0.97 65.3,-0.01 97.27,-0.01 32.52,-0.01 66.08,0.89 98.47,-0.08 -2.8,3.79 -18.46,13.77 -24.03,17.99 -6.59,5 -19.43,12.13 -22.25,20.15 -4.66,13.26 2.98,24.43 13.11,27.08 12.44,3.26 20.16,-3.89 30.81,-11.85l49.76 -36.19c5.96,-4.27 12.41,-7.19 16.18,-13.14 -19.52,-6.52 -34.93,-23.45 -37.83,-45.04 -2.91,-21.67 4.9,-42.07 23.49,-54.19 4.46,-2.91 9.32,-5.16 14.39,-6.74 -3.54,-5.71 -9.54,-8.52 -15.49,-12.69l-62.24 -44.95c-17.47,-12.03 -38.48,2.37 -32.49,22.55 3.8,12.8 39.76,29.96 46.6,39.07z"/>
    <path class="fil1" d="M339.82 181.31c-6.99,-54.05 -88.81,-44.03 -81.42,11.05 2.7,20.15 22.33,38.05 46.59,34.65 20.19,-2.84 37.87,-22.15 34.83,-45.69z"/>
   </g>
  </g>
 </g>
</svg>
