<?xml version="1.0" encoding="UTF-8"?>
<!DOCTYPE svg PUBLIC "-//W3C//DTD SVG 1.1//EN" "http://www.w3.org/Graphics/SVG/1.1/DTD/svg11.dtd">
<!-- Creator: CorelDRAW 2020 (64-Bit) -->
<svg xmlns="http://www.w3.org/2000/svg" xml:space="preserve" width="12.6302mm" height="12.9136mm" version="1.1" style="shape-rendering:geometricPrecision; text-rendering:geometricPrecision; image-rendering:optimizeQuality; fill-rule:evenodd; clip-rule:evenodd"
viewBox="0 0 879.82 899.56"
 xmlns:xlink="http://www.w3.org/1999/xlink"
 xmlns:xodm="http://www.corel.com/coreldraw/odm/2003">
 <defs>
  <style type="text/css">
   <![CDATA[
    .fil0 {fill:#00A039}
   ]]>
  </style>
 </defs>
 <g id="Capa_x0020_1">
  <metadata id="CorelCorpID_0Corel-Layer"/>
  <g id="_1783653846832">
   <path class="fil0" d="M166.11 899.56l502.44 0c-39.74,-24.95 -66.28,-69.16 -66.28,-119.33l0 -11.54c-10.48,4.37 -21.96,6.78 -33.99,6.78l-383.02 0c-26.47,17.88 -43.96,48.16 -43.96,82.31l0 16.98c0,13.65 11.17,24.81 24.81,24.81z"/>
   <path class="fil0" d="M841.51 6.59l-98.44 0c-62.03,0 -112.76,50.73 -112.76,112.76l0 30.09c16.6,16.2 26.95,38.75 26.95,63.64l0 473.41c0,24.89 -10.35,47.45 -26.95,63.64l0 30.1c0,62.03 50.73,112.76 112.76,112.76l98.44 0c21.08,0 38.31,-17.23 38.31,-38.3l0 -809.8c0,-21.07 -17.23,-38.3 -38.31,-38.3z"/>
   <rect class="fil0" x="0" y="151.05" width="630.3" height="597.47" rx="62.04" ry="62.04"/>
   <path class="fil0" d="M166.11 0l502.45 0c-39.75,24.95 -66.3,69.17 -66.3,119.35l0 11.53c-10.48,-4.37 -21.96,-6.78 -33.99,-6.78l-383.02 0c-26.47,-17.87 -43.96,-48.15 -43.96,-82.31l0 -16.98c0,-13.65 11.17,-24.81 24.81,-24.81z"/>
  </g>
 </g>
</svg>
