<?xml version="1.0" encoding="UTF-8" standalone="no"?>
<svg
   id="body_1"
   width="98.221809"
   height="68.069557"
   version="1.1"
   sodipodi:docname="DBY-1-rotated.svg"
   inkscape:version="1.1 (c4e8f9e, 2021-05-24)"
   xmlns:inkscape="http://www.inkscape.org/namespaces/inkscape"
   xmlns:sodipodi="http://sodipodi.sourceforge.net/DTD/sodipodi-0.dtd"
   xmlns="http://www.w3.org/2000/svg"
   xmlns:svg="http://www.w3.org/2000/svg">
  <sodipodi:namedview
     id="namedview122"
     pagecolor="#ffffff"
     bordercolor="#666666"
     borderopacity="1.0"
     inkscape:pageshadow="2"
     inkscape:pageopacity="0.0"
     inkscape:pagecheckerboard="0"
     showgrid="false"
     inkscape:zoom="6.8235294"
     inkscape:cx="48.508621"
     inkscape:cy="34"
     inkscape:window-width="1366"
     inkscape:window-height="707"
     inkscape:window-x="0"
     inkscape:window-y="0"
     inkscape:window-maximized="1"
     inkscape:current-layer="body_1" />
  <defs
     id="defs95">
    <clipPath
       id="1">
      <path
         id=""
         clip-rule="evenodd"
         d="m 0,-0.05344391 h 73.6682 v 0 V 51 51 H 0 v 0 z" />
    </clipPath>
  </defs>
  <g
     transform="matrix(1.3333,0,0,1.3333,0,0.07125677)"
     id="g119">
    <g
       clip-path="url(#1)"
       id="g117">
      <path
         id="path97"
         transform="matrix(1,0,0,-1,0,51)"
         d="m 65.822495,-152.44821 v 0 0 0 0 -0.34867 0 0 c 0,-0.20002 -0.163485,-0.36342 -0.363289,-0.36342 v 0 0 0 h -5.589661 v 0 0 c -0.199883,0 -0.363358,0.1634 -0.363358,0.36342 v 0 0 0 0.34716 0 0 0 h 6.200463 v 0 0 c 0.03867,0 0.07733,6.8e-4 0.115845,0.002 z"
         stroke="#ffffff"
         stroke-width="0.0100493"
         fill="#ff0000"
         fill-rule="nonzero" />
      <path
         id="path99"
         transform="matrix(1,0,0,-1,0,51)"
         d="m 10.949905,-152.44966 v 0 0 0 0 -0.34715 0 0 c 0,-0.20003 -0.163478,-0.36342 -0.363361,-0.36342 v 0 0 0 H 4.9968796 v 0 0 c -0.1998826,0 -0.3633652,0.16339 -0.3633652,0.36342 v 0 0 0 0.34866 0 0 c 0.03859,-8.2e-4 0.077187,-0.002 0.115921,-0.002 z"
         stroke="#ffffff"
         stroke-width="0.0100493"
         fill="#ff0000"
         fill-rule="nonzero" />
      <path
         id="path101"
         transform="matrix(1,0,0,-1,0,51)"
         d="m 15.011597,19.452394 v 0 0 l -1.53e-4,0.288439 v 0 0 c -0.10725,0.952074 -1.657841,0.924189 -1.663261,-0.142223 v 0 0 c -0.0035,-0.693783 0.799072,-1.099571 1.367206,-0.657074 v 0 0 c 0.129788,0.100994 0.273217,0.292509 0.296208,0.510857 z M 12.057243,19.07155 c 0.479355,-0.04748 0.495938,-0.376096 0.799149,-0.721742 v 0 0 c 0.109737,-0.125038 0.303966,-0.240208 0.431717,-0.335396 v 0 0 c 0.128284,-0.09549 0.260933,-0.239224 0.281738,-0.484783 v 0 0 c 0.03761,-0.444756 0.0023,-1.063469 0.0023,-1.527146 v 0 0 c 0,-0.542213 0.06602,-0.969108 -0.337433,-1.192428 v 0 0 c -0.56897,-0.314896 -1.925327,0.562111 -2.343556,0.949886 v 0 0 c -0.07447,0.06904 -0.142673,0.101524 -0.207798,0.177197 v 0 l -0.18993,0.193473 c -0.06964,0.06339 -0.10733,0.13303 -0.176895,0.206891 v 0 0 c -0.254902,0.27058 -0.435188,0.624969 -0.626625,0.926219 v 0 0 C 9.609825,17.172451 9.3280945,16.058182 9.345352,15.98756 v 0 0 c 0.018166,-0.07424 0.19672,-0.258896 0.250004,-0.323715 v 0 L 10.13591,15.10136 c 0.07695,-0.07522 0.212017,-0.173801 0.304192,-0.247062 v 0 0 c 2.092872,-1.664997 4.933868,-1.735844 7.179741,-0.232895 v 0 0 c 0.461643,0.308941 0.852512,0.676372 1.176673,1.05307 v 0 0 c 0.352887,0.410091 0.284974,0.299145 0.174107,0.757694 v 0 0 c -0.04643,0.191742 -0.158428,0.734329 -0.262287,0.85643 v 0 L 18.00325,16.277359 c -0.03542,-0.03957 -0.05012,-0.06723 -0.08441,-0.109364 v 0 0 c -0.04319,-0.05298 -0.04612,-0.04937 -0.09866,-0.09293 v 0 0 c -0.07047,-0.05842 -0.03127,-0.02774 -0.09082,-0.100319 v 0 0 c -0.06489,-0.07922 -0.129715,-0.114788 -0.204403,-0.180058 v 0 0 c -0.370895,-0.324016 -1.744057,-1.302017 -2.363148,-1.0135 v 0 0 c -0.431564,0.201088 -0.387398,0.609516 -0.387398,1.149242 v 0 0 c 0,0.503922 -0.02284,1.062111 0.0012,1.559403 v 0 0 c 0.02487,0.518246 0.425464,0.545982 0.693935,0.840301 v 0 0 c 0.304039,0.333363 0.330193,0.681721 0.815953,0.740132 v 0 0 c 0.302608,0.01123 1.626785,-0.04997 1.780689,0.02246 v 0 l -0.05269,1.1867 v 0 l -1.582771,-0.0014 v 0 0 c -0.219925,-3.77e-4 -0.329293,0.03701 -0.487946,0.05012 v 0 l -0.133331,0.118258 c -0.08826,0.08132 -0.117725,0.14908 -0.197468,0.251884 v 0 0 c -0.217895,0.280903 -0.473244,0.474682 -0.814373,0.599796 v 0 0 c -0.72559,0.266207 -1.594978,0.01749 -2.036945,-0.570324 v 0 0 C 12.341303,20.170021 12.29141,20.278101 11.348303,20.278101 v 0 0 c -0.298916,0 -0.668908,0.01937 -0.95908,-0.0051 v 0 l -0.01575,-0.990738 c -0.03091,-0.05517 -0.0288,-0.12632 -0.02887,-0.206211 v 0 l 1.712784,-0.0047 z"
         stroke="#ffffff"
         stroke-width="0.0100493"
         fill="#999999"
         fill-rule="nonzero" />
      <path
         id="path103"
         transform="matrix(1,0,0,-1,0,51)"
         d="m 7.3837814,15.49155 v 0 0 L 8.972504,15.089226 v 0 0 c 0.074386,0.193023 0.132427,0.557964 0.180732,0.755733 v 0 0 c 0.063538,0.259724 0.125267,0.514927 0.191441,0.772164 v 0 0 c 0.055851,0.21714 0.117275,0.546131 0.224525,0.731994 v 0 0 c 0.119915,0.207871 0.295674,0.252716 0.415589,0.544022 v 0 0 c 0.311352,0.75626 0.217365,1.789585 0.286106,2.591144 v 0 0 c 0.026,0.303589 0.04681,0.605824 0.05035,0.912203 v 0 0 c 0.0036,0.313313 -0.01402,0.567234 -0.242538,0.695137 v 0 0 C 9.810467,22.241837 9.52647,22.114313 9.4061815,21.947214 v 0 0 C 9.17683,21.628777 9.37558,20.555658 9.283703,20.153107 v 0 0 C 9.198383,19.779047 8.304192,19.95496 8.429462,20.813875 v 0 0 c 0.074692,0.511763 0.307888,1.01026 0.385891,1.550209 v 0 L 8.123833,21.60036 C 8.063538,21.543304 8.05088,21.501099 7.9935226,21.442007 v 0 L 7.4396286,20.822468 C 6.956726,20.36286 7.087494,20.10713 7.188568,19.46739 v 0 L 7.4341965,17.961422 C 7.480324,17.792065 7.5504913,17.68753 7.59391,17.524128 v 0 0 c 0.087578,-0.329971 -0.0098,-0.704559 -0.062332,-1.03973 v 0 0 C 7.5030136,16.301552 7.3748856,15.608677 7.383774,15.491478 Z"
         stroke="#ffffff"
         stroke-width="0.0100493"
         fill="#999999"
         fill-rule="nonzero" />
      <path
         id="path105"
         transform="matrix(1,0,0,-1,0,51)"
         d="m 19.42828,15.09103 v 0 0 l 1.594303,0.393887 v 0 0 c 0.03768,0.279319 -0.339923,1.543273 -0.209,2.03318 v 0 0 c 0.114262,0.42765 0.138081,0.162647 0.245251,0.926673 v 0 0 c 0.04816,0.343385 0.108833,0.67833 0.163101,1.019528 v 0 0 c 0.139885,0.878889 0.183675,0.855902 -0.225811,1.318899 v 0 l -0.681118,0.781813 c -0.115466,0.109964 -0.612228,0.720537 -0.722198,0.805103 v 0 0 c 0.07952,-0.536785 0.30133,-1.019077 0.384838,-1.529861 v 0 0 c 0.05299,-0.323866 -0.0043,-0.578766 -0.218498,-0.733952 v 0 0 c -0.158051,-0.11456 -0.546131,-0.28407 -0.629868,0.03369 v 0 0 c -0.08668,0.328914 0.08614,1.47145 -0.104465,1.789888 v 0 0 c -0.11456,0.191517 -0.413255,0.302687 -0.697171,0.159332 v 0 0 c -0.228897,-0.115617 -0.240886,-0.392677 -0.237037,-0.716543 v 0 0 c 0.0035,-0.29462 0.02073,-0.594894 0.04937,-0.887104 v 0 0 c 0.07402,-0.756111 -0.03994,-1.82546 0.28392,-2.586393 v 0 0 c 0.150063,-0.352657 0.178398,-0.208023 0.403157,-0.53151 v 0 0 c 0.113204,-0.162948 0.177268,-0.509422 0.231689,-0.72551 v 0 0 c 0.119835,-0.475886 0.294239,-1.072967 0.36969,-1.551116 z"
         stroke="#ffffff"
         stroke-width="0.0100493"
         fill="#999999"
         fill-rule="nonzero" />
      <path
         id="path107"
         transform="matrix(1,0,0,-1,0,51)"
         d="m 9.11171,20.111425 c 0.174858,0.306078 -0.135815,1.609074 0.236812,1.990145 v 0 0 c 0.119007,0.121723 0.312489,0.194002 0.54892,0.193325 v 0 0 c 0.066402,0.07612 0.115845,0.172522 0.165287,0.242765 v 0 l 0.361622,0.454182 c 0.09082,0.113131 0.533848,0.502188 0.649238,0.597306 v 0 0 c 0.787388,0.649012 1.960221,1.073118 3.103432,1.074402 v 0 0 c 0.984253,0.0011 1.920124,-0.297335 2.616165,-0.723328 v 0 0 c 0.251888,-0.154206 0.724003,-0.486664 0.927277,-0.726112 v 0 0 c 0.0753,-0.08871 0.137927,-0.09369 0.403381,-0.43579 v 0 0 c 0.117729,-0.151794 0.252419,-0.30781 0.351452,-0.487116 v 0 0 c 0.616753,0.01402 0.768474,-0.302007 0.7733,-0.894716 v 0 0 c 0.0022,-0.2598 0.01409,-0.531358 0.0076,-0.791006 v 0 0 c -0.007,-0.27593 -0.09813,-0.650518 0.294921,-0.459833 v 0 0 c 0.216088,0.104839 0.308792,0.211338 0.304646,0.50754 v 0 0 c -0.0032,0.221134 -0.09082,0.485004 -0.149983,0.685489 v 0 0 c -0.06331,0.214352 -0.121349,0.430966 -0.172973,0.641247 v 0 0 c -0.05426,0.221514 -0.08622,0.474228 -0.148026,0.693102 v 0 0 c -0.09911,0.350923 -0.812114,1.10161 -1.098819,1.37068 v 0 0 c -0.03572,0.03346 -0.05751,0.06399 -0.09406,0.097 v 0 0 c -0.04236,0.03829 -0.07703,0.05909 -0.11916,0.09685 v 0 0 c -0.585396,0.523672 -1.594299,1.047644 -2.515095,1.247752 v 0 0 c -0.986065,0.214277 -1.985771,0.22739 -2.953972,-0.04658 v 0 0 c -1.08028,-0.3057 -1.847545,-0.761087 -2.634182,-1.512447 v 0 0 C 9.700359,23.669119 9.407925,23.332293 9.209099,23.032394 v 0 0 C 9.034241,22.768675 9.046825,22.801386 8.972439,22.429056 v 0 0 C 8.877243,21.952116 8.75967,21.560192 8.636818,21.11076 v 0 0 C 8.584209,20.918264 8.511024,20.607891 8.587448,20.41027 v 0 0 C 8.64473,20.26209 8.873024,20.049097 9.111649,20.11158 Z"
         stroke="#ffffff"
         stroke-width="0.0100493"
         fill="#999999"
         fill-rule="nonzero" />
      <path
         id="path109"
         transform="matrix(1,0,0,-1,0,51)"
         d="m 39.354584,32.06894 v 0 0 0 0 H 60.03769 v 0 0 c 1.787322,0 3.468223,-0.482219 4.918716,-1.322896 v 0 0 c 1.233584,-0.714886 2.30014,-1.689417 3.123784,-2.847099 v 0 l -0.33939,5.355411 v 0 l -0.0012,0.0024 v 0 l -0.01107,0.02171 v 0 l -0.008,0.01545 v 0 l -0.01071,0.02103 v 0 l -0.01665,0.03233 v 0 l -0.0096,0.01862 v 0 l -0.02456,0.04801 v 0 l -0.0087,0.01688 v 0 l -0.03227,0.06271 v 0 l -0.0081,0.01583 v 0 l -0.03919,0.07635 v 0 l -0.0078,0.01522 v 0 l -0.04575,0.08901 v 0 l -0.0078,0.0153 v 0 l -0.05178,0.100769 v 0 l -0.0081,0.0159 v 0 l -0.05728,0.111469 v 0 l -0.0087,0.01711 v 0 l -0.06233,0.121269 v 0 l -0.0096,0.01869 v 0 l -0.067,0.130313 v 0 l -0.01056,0.02072 v 0 l -0.07107,0.138382 v 0 l -0.01199,0.02322 v 0 l -0.07469,0.145614 v 0 l -0.01349,0.02615 v 0 l -0.174185,0.339314 v 0 l -0.01711,0.03324 v 0 l -0.08351,0.162575 v 0 l -0.01914,0.03731 v 0 l -0.08547,0.166717 v 0 l -0.02148,0.04168 v 0 l -0.0872,0.170109 v 0 0 c -0.294475,0.573719 -0.6295,1.227176 -0.987575,1.926532 v 0 l -0.04696,0.09157 v 0 L 65.452,37.716156 v 0 0 c -1.726536,3.371552 -3.921383,7.674724 -4.68104,9.237144 v 0 l -0.01258,0.02578 v 0 l -6.03e-4,0.0013 v 0 l -0.0017,0.0033 v 0 0 c -1.27654,2.53635 -4.104272,2.53183 -4.11701,2.53183 v 0 0 c -0.06165,0 -8.255806,-0.0035 -17.284072,-0.01598 v 0 0 0 -0.009 0 0 C 28.38806,49.51035 16.38441,49.51548 16.309798,49.51548 v 0 0 c -0.01274,0 -2.840469,0.0045 -4.117012,-2.53183 v 0 l -0.0017,-0.0033 v 0 l -6.03e-4,-0.0013 v 0 l -0.01259,-0.02578 v 0 0 C 11.418247,45.390804 9.223324,41.087708 7.4968185,37.716183 v 0 l -0.08818,-0.172295 v 0 l -0.046951,-0.09158 v 0 0 C 7.003525,36.752953 6.6685104,36.09957 6.374115,35.52578 v 0 L 6.286911,35.35567 v 0 L 6.265427,35.31399 v 0 L 6.179955,35.147274 v 0 l -0.019142,-0.03731 v 0 L 6.077301,34.94739 v 0 L 6.060196,34.91415 v 0 L 5.886017,34.574837 v 0 l -0.013489,-0.02615 v 0 L 5.7978287,34.40307 v 0 l -0.011978,-0.02322 v 0 L 5.714775,34.241478 v 0 l -0.010544,-0.02073 v 0 l -0.067009,-0.13032 v 0 l -0.00957,-0.01869 v 0 L 5.56532,33.950468 v 0 l -0.00874,-0.01711 v 0 l -0.05729,-0.111468 v 0 l -0.00814,-0.01591 v 0 L 5.439369,33.705215 v 0 l -0.00784,-0.0153 v 0 l -0.045746,-0.08901 v 0 l -0.00784,-0.01523 v 0 l -0.039185,-0.07635 v 0 l -0.00807,-0.01583 v 0 l -0.032257,-0.06271 v 0 l -0.00867,-0.01688 v 0 l -0.024567,-0.04801 v 0 l -0.00957,-0.01862 v 0 L 5.238968,33.31495 v 0 L 5.228264,33.29392 v 0 l -0.00799,-0.01545 v 0 L 5.209196,33.25676 v 0 l -0.00121,-0.0024 v 0 L 4.868599,27.89894 v 0 0 c 0.82357,1.157605 1.890129,2.13214 3.123787,2.8471 v 0 0 c 1.450493,0.840678 3.131393,1.32289 4.918716,1.32289 v 0 0 0 H 39.355415 Z M 73.6682,5.5488815 C 73.66194,5.104351 73.65538,4.6832542 73.64838,4.2867317 v 0 0 0 -150.9301917 0 0 c 0,-1.63991 -0.67073,-3.13073 -1.7513,-4.21114 v 0 0 c -1.080506,-1.08058 -2.57133,-1.75137 -4.21123,-1.75137 v 0 0 0 H 40.128555 v 0 0 0 0.36336 0 0 0 H 67.68585 v 0 0 c 1.539515,0 2.939356,0.63003 3.954294,1.64495 v 0 0 c 1.014931,1.01486 1.644876,2.41471 1.644876,3.95421 v 0 0 0 151.82897 0 0 0 h -4.29978 v 0 0 C 68.65911,3.332924 67.03225,1.9137878 65.08989,1.9137878 v 0 0 0 H 52.536644 v 0 0 c -1.942364,0 -3.569222,1.4191362 -3.895348,3.2717322 v 0 0 0 h -5.625839 v 0 0 0 -1.7012518 0 0 0 h -0.436771 v 0 0 0 3.7657128 0 0 0 h 0.436771 v 0 0 0 -1.7011796 0 0 0 H 68.82289 v 0 h 4.51164 v 0 H 73.6682 Z M 39.354584,49.89341 c 9.035431,0.01236 17.234249,0.01598 17.284746,0.01598 v 0 0 0 h 8.3e-4 v 0 0 c 0.0082,-7.6e-5 2.6791,0.0063 4.16487,-2.226206 v 0 0 0 h 5.12538 v 0 0 c 1.148264,0 2.192065,-0.469626 2.94855,-1.22619 v 0 0 c 0.75649,-0.75649 1.226196,-1.800362 1.226196,-2.94855 v 0 L 68.82288,27.369318 v 0 l -6.75e-4,0.003 v 0 l -3.75e-4,0.0017 v 0 l -3.7e-4,0.0014 v 0 l -6.8e-4,0.0032 v 0 l -6.8e-4,0.0031 v 0 l -6.8e-4,0.0032 v 0 l -7.55e-4,0.0031 v 0 l -2.29e-4,0.0011 v 0 l -4.5e-4,0.002 v 0 l -6.76e-4,0.0031 v 0 l -7.5e-4,0.0032 v 0 l -6.8e-4,0.0031 v 0 l -7.55e-4,0.0032 v 0 l -7.5e-5,5.26e-4 v 0 l -6.05e-4,0.0026 v 0 l -7.55e-4,0.0032 v 0 l -6.8e-4,0.0032 v 0 l -7.54e-4,0.0032 v 0 l -6.76e-4,0.003 v 0 0 0 1.5e-4 0 l -7.5e-4,0.0032 v 0 l -6.8e-4,0.0032 v 0 l -7.55e-4,0.0032 v 0 l -6.79e-4,0.0032 v 0 l -6.06e-4,0.0025 v 0 l -1.5e-4,7.53e-4 v 0 l -6.8e-4,0.0032 v 0 l -7.54e-4,0.0032 v 0 l -7.46e-4,0.0032 v 0 l -6.8e-4,0.0032 v 0 l -4.6e-4,0.0018 v 0 l -2.96e-4,0.0014 v 0 l -7.54e-4,0.0032 v 0 l -6.8e-4,0.0032 v 0 l -7.55e-4,0.0032 v 0 l -7.45e-4,0.0032 v 0 l -3.1e-4,0.0012 v 0 l -4.5e-4,0.002 v 0 l -6.8e-4,0.0032 v 0 l -7.5e-4,0.0032 v 0 l -7.6e-4,0.0032 v 0 l -7.5e-4,0.0032 v 0 l -1.5e-4,6.03e-4 v 0 l -6e-4,0.0026 v 0 l -6.8e-4,0.0032 v 0 l -7.55e-4,0.0032 v 0 l -7.55e-4,0.0032 v 0 l -7.56e-4,0.0032 v 0 0 0 7.7e-5 0 l -7.54e-4,0.0032 v 0 l -7.5e-4,0.0032 v 0 l -7.54e-4,0.0032 v 0 l -6.76e-4,0.0032 v 0 l -6.06e-4,0.0026 v 0 l -1.54e-4,6.77e-4 v 0 l -7.54e-4,0.0033 v 0 l -7.46e-4,0.0032 v 0 l -7.6e-4,0.0032 v 0 l -7.5e-4,0.0033 v 0 l -4.5e-4,0.0019 v 0 l -3.1e-4,0.0014 v 0 l -7.5e-4,0.0032 v 0 l -7.5e-4,0.0033 v 0 l -7.56e-4,0.0032 v 0 l -7.54e-4,0.0033 v 0 l -3.1e-4,0.0013 v 0 l -4.5e-4,0.002 v 0 l -7.5e-4,0.0033 v 0 l -7.5e-4,0.0032 v 0 l -7.55e-4,0.0033 v 0 l -9.85e-4,0.0039 v 0 l -6e-4,0.0026 v 0 l -7.6e-4,0.0033 v 0 l -7.45e-4,0.0033 v 0 l -7.55e-4,0.0032 v 0 l -7.55e-4,0.0033 v 0 0 c -0.05788,0.250831 -0.156319,0.292059 -0.200935,0.476791 v 0 0 c -0.03535,0.145992 -0.02427,0.465712 -0.02427,0.465712 v 0 l 0.0043,1.01433 v 0 L 69.66544,43.5095 v 0 0 c 0,1.02699 -0.42026,1.96075 -1.097386,2.637797 v 0 0 C 67.89101,46.82442 66.95717,47.24476 65.93026,47.24476 v 0 0 0 h -4.815083 v 0 l 0.05004,-0.09987 v 0 0 C 62.463012,44.475286 67.974589,33.759033 68.1291,33.458683 v 0 l 0.04341,-0.08434 v 0 l 0.243224,-3.839346 v 0 l 0.0012,-0.03821 v 0 l 0.0012,-0.03806 v 0 l 0.0011,-0.03783 v 0 l 0.0012,-0.03769 v 0 l 0.03693,-1.198003 v 0 l 0.05585,-0.880473 v 0 l 0.0024,-0.03814 v 0 l 0.0024,-0.03821 v 0 l 0.15247,-0.889744 v 0 0 0 0 0 0 c -14.22018,0 -15.169644,0 -0.38951,0 v 0 l -0.0094,0.176742 v 0 l -0.01341,0.114186 v 0 0 c -0.11841,0.233723 -0.111255,0.214127 -0.12791,0.47777 v 0 0 c -0.82952,1.360504 -1.991875,2.498516 -3.37167,3.298191 v 0 0 c -1.391334,0.806307 -3.004554,1.268853 -4.72103,1.268853 v 0 0 0 H 39.354507 v 0 H 12.910194 v 0 0 c -1.716476,0 -3.329692,-0.462546 -4.721023,-1.268853 v 0 0 C 6.8092957,29.605852 5.646942,28.46784 4.8174896,27.107336 v 0 0 c -0.016655,-0.263646 -0.00942,-0.244047 -0.1278991,-0.47777 v 0 l -0.01342,-0.114186 v 0 L 4.381172,21.007494 v 0 L 3.4403305,19.012375 v 0 0 0 -0.113808 0 L 3.3094864,18.735088 v 0 L 0.3941803,12.553471 v 0 0 C 0.4011843,9.716316 0.3979493,7.4052505 0.3873143,5.569763 v 0 0 0 H 30.706322 v 0 0 0 1.7011797 0 0 0 h 0.436768 v 0 0 0 -3.7657127 0 0 0 h -0.436768 v 0 0 0 1.701252 0 0 0 h -5.625843 v 0 0 C 24.754353,3.3538895 23.127495,1.9347496 21.185131,1.9347496 v 0 0 0 H 8.631886 v 0 0 c -1.942364,0 -3.569218,1.4191399 -3.8953443,3.2717324 v 0 0 0 H 0.43675232 v 0 0 0 -151.828982 0 0 c 0,-1.5395 0.63002018,-2.93944 1.64487468,-3.95422 v 0 0 c 1.015007,-1.015 2.4147796,-1.64494 3.9542846,-1.64494 v 0 0 0 H 39.35442 v 0 0 0 -0.36338 0 0 0 H 6.0359116 v 0 0 c -1.6399689,0 -3.1307145,0.67081 -4.2112198,1.75138 v 0 0 c -1.0805817,1.08043 -1.75129703,2.57132 -1.75129703,4.21115 v 0 0 0 150.9301997 0 0 C 0.03608704,6.4325943 0.00827789,9.261681 -1.5258789e-5,12.643005 v 0 0 C 0.98905945,14.742737 1.977768,16.842922 2.970314,18.94107 v 0 l 0.07447,0.09324 v 0 0 0 0.06489 0 l 0.9467164,2.007407 v 0 0 c 0.1071777,2.000846 0.1747055,3.989483 0.3519058,5.974653 v 0 l 0.084114,0.143879 v 0 l 0.00452,0.04168 v 0 l 0.00241,0.03814 v 0 l 0.055855,0.880472 v 0 l 0.036926,1.198004 v 0 l 0.00121,0.03768 v 0 l 0.00112,0.03783 v 0 l 0.00121,0.03806 v 0 l 0.00121,0.03821 v 0 l 0.2432175,3.83935 v 0 l 0.043412,0.08434 v 0 0 C 4.973121,33.759257 10.484703,44.47551 11.782501,47.145112 v 0 l 0.05005,0.09987 v 0 0 0 H 7.0174637 v 0 0 c -1.0269852,0 -1.9608231,-0.420338 -2.6377947,-1.09746 v 0 0 C 3.7025452,45.470394 3.28228,44.536636 3.28228,43.50972 v 0 L 4.392708,29.532059 v 0 l 0.00429,-1.01433 v 0 0 c 0,0 0.011009,-0.319645 -0.024269,-0.465712 v 0 0 C 4.3281174,27.867285 4.229683,27.826057 4.1717987,27.575226 v 0 l -7.553e-4,-0.0033 v 0 l -7.554e-4,-0.0032 v 0 l -7.55e-4,-0.0033 v 0 l -7.555e-4,-0.0033 v 0 l -6.028e-4,-0.0026 v 0 l -9.841e-4,-0.0039 v 0 l -7.554e-4,-0.0033 v 0 l -7.552e-4,-0.0032 v 0 l -7.554e-4,-0.0033 v 0 l -4.501e-4,-0.002 v 0 l -3.052e-4,-0.0013 v 0 l -7.553e-4,-0.0033 v 0 l -7.553e-4,-0.0032 v 0 l -7.553e-4,-0.0033 v 0 l -7.554e-4,-0.0032 v 0 l -2.975e-4,-0.0014 v 0 l -4.501e-4,-0.0019 v 0 l -7.554e-4,-0.0033 v 0 l -7.55e-4,-0.0032 v 0 l -7.555e-4,-0.0032 v 0 l -7.555e-4,-0.0033 v 0 l -1.524e-4,-6.77e-4 v 0 l -6.026e-4,-0.0026 v 0 l -6.79e-4,-0.0032 v 0 l -7.555e-4,-0.0032 v 0 l -7.555e-4,-0.0032 v 0 l -7.55e-4,-0.0032 v 0 0 0 -7.7e-5 0 l -7.554e-4,-0.0032 v 0 l -7.553e-4,-0.0032 v 0 l -7.553e-4,-0.0032 v 0 l -6.79e-4,-0.0032 v 0 l -6.03e-4,-0.0026 v 0 l -1.524e-4,-6.03e-4 v 0 l -7.553e-4,-0.0032 v 0 l -7.553e-4,-0.0032 v 0 l -7.553e-4,-0.0032 v 0 l -6.79e-4,-0.0032 v 0 l -4.501e-4,-0.002 v 0 l -2.976e-4,-0.0012 v 0 l -7.63e-4,-0.0032 v 0 l -7.552e-4,-0.0032 v 0 l -6.714e-4,-0.0032 v 0 l -7.554e-4,-0.0032 v 0 l -3.05e-4,-0.0014 v 0 l -4.502e-4,-0.0018 v 0 l -6.791e-4,-0.0032 v 0 l -7.553e-4,-0.0032 v 0 l -7.554e-4,-0.0032 v 0 l -6.713e-4,-0.0032 v 0 l -1.527e-4,-0.0015 v 0 l -6.026e-4,-0.0025 v 0 l -6.79e-4,-0.0032 v 0 l -7.554e-4,-0.0032 v 0 l -6.79e-4,-0.0032 v 0 l -7.55e-4,-0.0032 v 0 0 0 -1.48e-4 0 l -6.792e-4,-0.003 v 0 l -7.554e-4,-0.0032 v 0 l -6.79e-4,-0.0032 v 0 l -7.554e-4,-0.0032 v 0 l -6.026e-4,-0.0026 v 0 l -6.87e-5,-5.26e-4 v 0 l -7.553e-4,-0.0032 v 0 l -6.79e-4,-0.0031 v 0 l -7.554e-4,-0.0032 v 0 l -6.79e-4,-0.0031 v 0 l -4.5e-4,-0.002 v 0 l -2.29e-4,-0.0011 v 0 l -7.552e-4,-0.0031 v 0 l -6.791e-4,-0.0032 v 0 l -6.714e-4,-0.0031 v 0 l -6.79e-4,-0.0032 v 0 l -3.813e-4,-0.0014 v 0 l -3.74e-4,-0.0017 v 0 l -6.79e-4,-0.003 v 0 L 2.8425217,43.508663 v 0 0 c 0,1.148187 0.469635,2.192063 1.2261963,2.948551 v 0 0 c 0.756485,0.756489 1.8002853,1.226193 2.948555,1.226193 v 0 0 0 h 5.125381 v 0 0 c 1.485844,2.232536 4.156655,2.226127 4.164868,2.226203 v 0 0 0 h 8.28e-4 v 0 0 c 0.06105,0 12.071254,-0.0052 23.04588,-0.02495 v 0 0 0 0.009 z"
         stroke="#ffffff"
         stroke-width="0.0100493"
         fill="#999999"
         fill-rule="nonzero" />
      <path
         id="path111"
         transform="matrix(1,0,0,-1,0,51)"
         d="m 73.25419,5.4427643 v 0 0 l -0.0077,6.7756267 v 0 l -3.2726,5.997441 v 0 l -0.146884,0.158608 v 0 0 0 0.110416 0 L 68.77084,20.42053 v 0 l -0.34621,5.454565 v 0 l -0.11617,0.226 v 0 l -0.02741,0.237535 v 0 l 0.43776,0.114293 v 0 l 0.09442,-0.139593 v 0 l 0.39503,-5.796645 v 0 l 1.06275,-1.947593 v 0 0 0 -0.06296 0 l 0.0836,-0.09046 v 0 l 3.33437,-6.110416 v 0 L 73.62891,5.4477196 Z"
         stroke="#000000"
         stroke-width="0.00782702"
         fill="#999999"
         fill-rule="nonzero" />
      <path
         id="path113"
         transform="matrix(1,0,0,-1,0,51)"
         d="m 45.168705,50.03519 c 0.397278,0.61035 1.08548,1.015988 1.863979,1.015988 v 0 0 0 h 4.722756 v 0 0 c 0.775104,0 1.460747,-0.402248 1.858772,-1.008148 v 0 0 c -2.272102,-0.0017 -5.216804,-0.0042 -8.445502,-0.0078 z"
         stroke="#ffffff"
         stroke-width="0.0100493"
         fill="#999999"
         fill-rule="nonzero" />
      <path
         id="path115"
         transform="matrix(1,0,0,-1,0,51)"
         d="m 17.488632,50.037453 c 0.397274,0.610347 1.085476,1.015987 1.863976,1.015987 v 0 0 0 h 4.722755 v 0 0 c 0.775105,0 1.460747,-0.40225 1.858777,-1.00815 v 0 0 c -2.272107,-0.0017 -5.216813,-0.0042 -8.445508,-0.0078 z"
         stroke="#ffffff"
         stroke-width="0.0100493"
         fill="#999999"
         fill-rule="nonzero" />
    </g>
  </g>
</svg>
