<?xml version="1.0" encoding="UTF-8"?>
<!DOCTYPE svg PUBLIC "-//W3C//DTD SVG 1.1//EN" "http://www.w3.org/Graphics/SVG/1.1/DTD/svg11.dtd">
<!-- Creator: CorelDRAW 2020 (64-Bit) -->
<svg xmlns="http://www.w3.org/2000/svg" xml:space="preserve" width="270.942mm" height="98.2959mm" version="1.1" style="shape-rendering:geometricPrecision; text-rendering:geometricPrecision; image-rendering:optimizeQuality; fill-rule:evenodd; clip-rule:evenodd"
viewBox="0 0 27094.18 9829.59"
 xmlns:xlink="http://www.w3.org/1999/xlink"
 xmlns:xodm="http://www.corel.com/coreldraw/odm/2003">
 <defs>
  <style type="text/css">
   <![CDATA[
    .fil1 {fill:#999999}
    .fil0 {fill:red}
   ]]>
  </style>
 </defs>
 <g id="Capa_x0020_1">
  <metadata id="CorelCorpID_0Corel-Layer"/>
  <g id="_1783836682464">
   <path class="fil0" d="M26999.23 872.43l46.49 0c26.67,0 48.46,21.8 48.46,48.44l0 745.29c0,26.65 -21.79,48.45 -48.46,48.45l-46.29 0 0 -826.73c0,-5.16 -0.09,-10.31 -0.2,-15.45z"/>
   <path class="fil0" d="M26999.43 8188.78l46.29 0c26.67,0 48.46,21.8 48.46,48.45l0 745.29c0,26.65 -21.79,48.45 -48.46,48.45l-46.49 0c0.11,-5.15 0.2,-10.29 0.2,-15.46l0 -826.73z"/>
   <path class="fil1" d="M26204.42 9761.54c205.27,0 391.92,-84 527.23,-219.32 135.33,-135.33 219.33,-321.97 219.33,-527.24l0 -4442.47 48.45 0 0 4442.47c0,218.66 -89.44,417.43 -233.52,561.5 -144.06,144.08 -342.84,233.51 -561.49,233.51 -2309.41,0 -4445.08,-2.44 -6416.21,-5.45 -3026.43,2.69 -7322.68,4.57 -13298,5.21 -3953.02,20.09 -4635.45,32.13 -85.33,0.01 -1440.64,0.15 -3277.27,0.23 -4918.14,0.23 -218.65,0 -417.43,-89.43 -561.49,-233.51 -144.08,-144.07 -233.52,-342.84 -233.52,-561.5l0 -4392.47 48.45 0 0 4392.47c0,205.27 84,391.91 219.33,527.24 135.31,135.32 321.96,219.32 527.23,219.32 6428.78,0 12431.64,3.25 16683.27,8.06 2483.81,-4.92 5185.52,-8.06 8034.41,-8.06zm-24720.33 -9761.54c-218.65,0 -417.43,89.43 -561.49,233.51 -144.08,144.07 -233.52,342.84 -233.52,561.5l2.65 3827.5 48.45 0 -2.65 -3827.5c0,-205.27 84,-391.91 219.33,-527.24 135.31,-135.32 321.96,-219.32 527.23,-219.32 4954.87,0 9337.94,-1.76 12511.49,-4.62 3173.55,2.86 7256.62,4.62 12211.49,4.62 205.27,0 391.92,84 527.23,219.32 135.33,135.33 219.33,321.97 219.33,527.24l0 3674.31 48.45 0 0 -3674.31c0,-218.66 -89.44,-417.43 -233.52,-561.5 -144.06,-144.08 -342.84,-233.51 -561.49,-233.51 -5028.21,0 -9083.33,1.55 -12211.49,4.11 -3128.16,-2.56 -7483.28,-4.11 -12511.49,-4.11z"/>
   <path class="fil1" d="M2.13 4530.71c-1.65,-1204.72 -2.13,-2297.9 -2.13,-2304.63l0 -0.11c0.01,-1.1 -0.84,-357.21 296.83,-555.32l0 -683.39c0,-153.1 62.62,-292.27 163.49,-393.14 73.09,-73.09 166.31,-126.08 270.35,-149.73l0 60.28c-87.85,22.5 -166.55,68.51 -228.92,130.88 -90.28,90.27 -146.33,214.78 -146.33,351.71l0 642.01 13.32 -6.67c77.87,-37.85 207.13,-102.63 361.93,-180.91l0 65.5c-143.44,72.48 -262.84,132.23 -336.52,168.05l-3.44 1.68 -0.17 0.08 -0.44 0.23c-338.18,170.21 -337.58,547.24 -337.58,548.94 0,8.22 0.47,1100.77 2.13,2304.54l1.2 0c-2.64,1462.26 -3.33,3062.75 -3.33,3072.7 0,1.7 -0.6,378.73 337.58,548.94l0.44 0.23 0.17 0.08 3.44 1.68c73.68,35.81 193.09,95.59 336.52,168.05l0 65.49c-154.79,-78.27 -284.06,-143.05 -361.93,-180.9l-13.32 -6.67 0 642.01c0,136.93 56.05,261.44 146.33,351.71 62.37,62.37 141.07,108.39 228.92,130.89l0 60.28c-104.04,-23.65 -197.26,-76.65 -270.35,-149.74 -100.87,-100.87 -163.49,-240.04 -163.49,-393.14l0 -683.39c-297.67,-198.11 -296.82,-554.22 -296.83,-555.32l0 -0.11c0,-8.14 0.69,-1609.5 3.33,-3072.79l-1.2 0z"/>
  </g>
 </g>
</svg>
