<?xml version="1.0" encoding="UTF-8"?>
<!DOCTYPE svg PUBLIC "-//W3C//DTD SVG 1.1//EN" "http://www.w3.org/Graphics/SVG/1.1/DTD/svg11.dtd">
<!-- Creator: CorelDRAW 2020 (64-Bit) -->
<svg xmlns="http://www.w3.org/2000/svg" xml:space="preserve" width="12.9137mm" height="12.7395mm" version="1.1" style="shape-rendering:geometricPrecision; text-rendering:geometricPrecision; image-rendering:optimizeQuality; fill-rule:evenodd; clip-rule:evenodd"
viewBox="0 0 148.45 146.45"
 xmlns:xlink="http://www.w3.org/1999/xlink"
 xmlns:xodm="http://www.corel.com/coreldraw/odm/2003">
 <defs>
  <style type="text/css">
   <![CDATA[
    .fil0 {fill:#336699}
   ]]>
  </style>
 </defs>
 <g id="Capa_x0020_1">
  <metadata id="CorelCorpID_0Corel-Layer"/>
  <path class="fil0" d="M-0 10.03l0 126.4c0,5.51 4.51,10.03 10.03,10.03l128.4 0c5.51,0 10.03,-4.51 10.03,-10.03l0 -126.4c0,-5.51 -4.51,-10.03 -10.03,-10.03l-128.4 0c-5.51,0 -10.03,4.51 -10.03,10.03zm104.07 63.78c-2.55,-1.76 -8.28,-12.31 -9.8,-16.99 -0.7,-2.16 -0.84,-4.61 -1.76,-5.08 -0.62,-0.32 -1.18,-0.07 -1.51,0.33 -1.37,1.66 3.07,11.51 3.97,13.21 3.5,6.6 4.31,6.57 7.08,10.94 -0.87,1.01 -3.59,3.85 -4,4.64 -0.37,0.72 -0.48,1.59 -0.81,2.16 -1.8,-1.6 -5.53,-7.16 -6.96,-9.45 -2.08,-3.32 -3.98,-7.08 -5.49,-11.13 -1.55,-4.15 -2.69,-9.09 -2.77,-13.95 -0.05,-3.15 1.02,-3.92 3.46,-4.94 11.03,-4.63 24.16,-4.54 35.12,-0.73 5.74,1.99 6.34,2.86 5.16,10.54 -1.29,8.4 -5.43,16.61 -10.1,23.14 -3.2,4.48 -4.19,5.54 -7.58,9.04 -1.09,1.12 -2.82,3.32 -5.67,2.12 -1.69,-0.71 -3.21,-3.09 -1.99,-5.53 0.6,-1.2 1.95,-2.27 2.92,-3.25 3.57,-3.6 9.02,-11.78 10.98,-16.09 0.92,-2.04 2.86,-6.88 3.14,-9.26 0.17,-1.44 -1.05,-2.28 -2.06,-1.62 -0.49,0.32 -1.69,5.29 -2.04,6.29 -1.35,3.86 -7.01,13.98 -9.29,15.58zm-62.03 -2.76c-1.75,-1.38 -5.48,-11.14 -6.37,-14.65 -0.45,-1.76 -0.5,-4.09 -1.44,-5.56 -2.84,-0.22 -2.05,2.26 -1.27,5.47 1.01,4.09 2.65,8.24 4.5,11.92 3.18,6.34 4.16,4.28 0.53,9.27 -2.29,3.16 -1.3,2.19 -2.35,3.86 -0.04,-0.04 -0.09,-0.15 -0.11,-0.12 -0.01,0.03 -0.08,-0.09 -0.1,-0.12 -3.54,-4.48 -7.82,-14.45 -9.46,-19.52 -1.25,-3.87 -2.11,-8.29 -2.12,-12.67 -0.01,-2.7 0.2,-4.31 1.99,-5.32 3.95,-2.26 15.2,-2.55 19.67,-2.28 3.02,0.18 10.34,1.1 12.51,2.28 5.27,2.86 -0.47,19.76 -1.98,23.37 -1.46,3.49 -3.12,6.79 -4.89,9.82 -0.97,1.66 -1.81,2.94 -2.79,4.46 -0.99,1.53 -1.96,3.08 -3.12,4.34 -3.43,3.73 -8.97,-0.5 -6.58,-4.67 1.16,-2.02 3.83,-5.07 5.89,-8.81 1.82,-3.29 3.29,-6.23 4.75,-9.96 0.72,-1.83 3.77,-10.3 1.71,-11.36 -1.93,-1 -2.09,3.17 -2.4,4.5 -0.46,1.98 -1.01,3.93 -1.72,5.74 -1.07,2.73 -3.27,7.97 -4.86,10zm20.46 20.73c-1.78,0.9 -6.03,2 -8.23,2.44 -1.46,0.29 -1.7,0.17 -2.02,1.59 -0.56,2.52 -2.27,9.2 -3.4,10.93 -0.65,-0.67 -2.07,-4.42 -2.4,-5.3 -0.53,-1.4 -1.33,-4.89 -2.07,-5.82l-2.67 -0.06c2.38,12.3 10.81,22.29 11.28,23.84 1.05,3.49 -1.96,6.61 -5.38,6.04 -4.95,-0.82 -11.82,-16.88 -13.43,-21.55 -0.51,-1.48 -0.92,-2.85 -1.35,-4.38 -1.92,-6.83 0.27,-4.14 -6.09,-6.08 -1.54,-0.47 -3.12,-1.16 -4.56,-1.58 0.32,-6.62 2.87,-13.84 5.35,-18.81 0.49,0.45 2.17,3.84 2.69,4.76 2.17,3.86 3.7,5.62 6.27,8.88 2.26,2.86 7.74,3.58 10.68,0.22 2.68,-3.07 7.85,-10.32 9.1,-13.94 0.86,0.6 1.97,2.98 2.41,3.88 1.73,3.54 4.27,11.52 3.82,14.94zm11.24 -78.27c2.61,1.02 2.25,2.75 2.25,5.8l0 102.74c0,2.47 0.16,5.5 -0,7.9 -0.15,2.24 -2.31,3.94 -4.74,2.95 -2.13,-0.86 -2.04,-3.06 -2.04,-5.74l0 -102.74c0,-2.5 -0.14,-5.41 -0,-7.86 0.12,-2.16 2.18,-3.98 4.53,-3.05zm18.52 67.37c0.7,0.47 1.28,1.39 1.97,2.19 0.67,0.77 1.35,1.53 1.97,2.29 0.55,0.68 1.49,1.55 2.11,2.16 5.65,5.58 2.91,-1.62 5.13,7.67 1.51,6.32 4.12,12.59 7.34,18 2.08,3.5 6.58,7.76 2.96,11.27 -1.42,1.38 -4.08,1.93 -6.04,0.54 -2.97,-2.09 -8.23,-12.38 -9.68,-15.89 -3.56,-8.58 -5.85,-17.72 -5.76,-28.25zm-47.95 -59.68c12.02,2.87 7.58,20.45 -4.16,17.68 -4.26,-1 -8.03,-5.3 -6.81,-10.81 0.96,-4.37 5.53,-8.16 10.97,-6.87zm61.37 -0.41c12.28,2.46 8.34,20.13 -3.46,17.82 -4.34,-0.85 -8.2,-5.14 -7.17,-10.65 0.82,-4.41 5.29,-8.25 10.63,-7.17zm5.01 86.32c-1.15,-2.56 -2.1,-4.62 -3.01,-7.63 -0.7,-2.33 -1.87,-6.52 -2,-8.98 1.4,-0.88 1.79,-0.64 3.1,-1.91l7.05 -7.72c-0.02,4.89 -0.42,9.64 -1.4,14.24 -0.48,2.27 -2.55,10.88 -3.74,11.99zm-69.99 14.94c-4.55,7.47 -12.73,1.39 -8.38,-4.61 0.53,-0.73 2.69,-4.13 3.13,-4.51l2.56 4.64c0.59,0.99 2.42,3.68 2.69,4.48zm61.66 0.64c-1.4,3.34 -6.32,4.58 -8.75,0.87 -1.18,-1.81 -0.69,-3.96 0.38,-5.43l2.72 -3.88c0.3,-0.32 0.04,-0.1 0.34,-0.28 0.9,1.71 1.5,3 2.44,4.56 0.87,1.43 2.22,2.96 2.87,4.15z"/>
 </g>
</svg>
